<?xml version="1.0" encoding="UTF-8"?>
<svg
  width="64"
  height="64"
  xmlns="http://www.w3.org/2000/svg"
  viewBox="0 0 64 64"
>
  <style>
    :root {
      color-scheme: light dark;
    }
    .bg {
      fill: #343438;
    }
    .fg {
      fill: #97ccff;
    }
    @media (prefers-color-scheme: dark) {
      .bg {
        fill: #fff;
      }
      .fg {
        fill: #64b3ff;
      }
    }
  </style>
  <rect width="64" height="64" class="bg" rx="8" ry="8" />
  <path
    id="Path"
    stroke="none"
    class="fg"
    d="M 42.526127 10.405266 C 45.329662 10.409512 48.1315 10.409512 50.934185 10.412056 C 51.581352 10.412056 52.175011 10.79594 52.376293 11.424423 C 52.389038 11.627407 52.462925 11.810856 52.452736 12.018932 C 52.460373 14.764713 52.454433 17.511349 52.458679 20.257133 C 52.461224 20.743782 52.332977 21.200703 51.953346 21.526836 C 51.505764 21.88269 50.850105 21.976116 50.347321 21.67971 C 49.833492 21.41048 49.687416 20.881371 49.667885 20.342064 C 49.661938 18.644318 49.667885 16.944019 49.661938 15.246269 C 49.630516 15.084904 49.489529 15.198708 49.451309 15.29213 C 48.734497 15.930805 48.074596 16.637421 47.375622 17.295628 C 46.807442 17.857014 46.294464 18.304596 45.732227 18.877022 C 45.391659 19.218441 45.006931 19.507202 44.670609 19.853718 C 41.73288 22.568924 38.676254 25.059071 35.392014 27.313107 C 29.109751 31.610561 22.254206 35.060417 15.008838 37.322098 C 14.572296 37.412975 14.089049 37.6185 13.649959 37.417221 C 13.346759 37.344181 13.147174 37.149696 12.949287 36.919529 C 12.640992 36.522057 12.615514 35.884235 12.906823 35.468925 C 13.113202 35.087593 13.618536 34.871021 13.996473 34.718151 C 20.863054 32.641609 27.472301 29.37011 33.419945 25.330845 C 36.900368 22.954506 40.166771 20.309788 43.259071 17.423023 C 44.385242 16.342716 45.484234 15.230984 46.571335 14.11076 C 46.791302 13.850021 47.019764 13.598629 47.260967 13.358276 C 47.303432 13.180775 47.136971 13.240227 47.027412 13.222393 C 45.750912 13.213047 44.482067 13.206253 43.205566 13.207954 C 42.839516 13.211349 42.437801 13.178226 42.101475 13.04319 C 41.489983 12.806232 41.195274 12.004494 41.392311 11.406586 C 41.485737 10.88512 42.018246 10.467266 42.526127 10.405266 Z"
  />
  <path
    id="path1"
    class="fg"
    stroke="none"
    d="M 43.545284 26.600548 C 45.273605 26.602245 46.995136 26.59375 48.726009 26.595455 C 49.064026 26.594601 49.401203 26.571671 49.699306 26.757668 C 50.292965 27.001415 50.525673 27.640087 50.505291 28.240543 C 50.506142 35.628593 50.507835 43.019196 50.504444 50.407249 C 50.495102 50.491329 50.506142 50.566917 50.537567 50.63401 C 51.275608 50.673931 52.120655 50.621273 52.887577 50.669685 C 53.07357 50.740173 53.263813 50.766499 53.424332 50.888802 C 53.722439 51.03318 53.902485 51.377144 53.988266 51.681198 C 53.986568 51.950424 54.045166 52.290142 53.915222 52.530495 C 53.73093 53.096127 53.191624 53.340725 52.632786 53.379795 C 38.818935 53.381493 25.000839 53.381493 11.186993 53.379795 C 10.755549 53.341576 10.36657 53.081688 10.161887 52.700356 C 9.87058 52.124527 9.967399 51.31345 10.493114 50.897293 C 10.703741 50.748669 10.918613 50.63316 11.186993 50.64505 C 12.093196 50.646751 12.998546 50.643356 13.904749 50.650146 C 13.959105 50.644199 14.003269 50.608532 14.03809 50.54229 C 14.039787 48.120937 14.038938 45.695339 14.038938 43.273136 C 14.043185 42.761856 14.022803 42.253975 14.075459 41.7444 C 14.173128 41.263699 14.576546 40.814415 15.0547 40.686169 C 15.326476 40.598694 15.653456 40.574059 15.943067 40.576611 C 17.754622 40.56472 19.567028 40.571518 21.37858 40.560478 C 22.091993 40.568119 22.743406 41.113369 22.82239 41.82933 C 22.834278 44.688065 22.825788 47.548508 22.828335 50.407249 C 22.819839 50.48793 22.830034 50.56012 22.861454 50.622971 C 22.928551 50.64505 23.000742 50.653545 23.077179 50.647602 C 24.47937 50.638256 26.100685 50.658642 27.471451 50.636559 C 27.566574 50.532093 27.513918 50.367332 27.522408 50.237389 C 27.522408 45.793007 27.518162 41.347778 27.521561 36.903397 C 27.525806 36.513565 27.504574 36.16111 27.665941 35.799301 C 27.844294 35.359367 28.305462 35.022194 28.767483 34.950005 C 30.890728 34.950005 33.013977 34.949154 35.137226 34.950859 C 35.72324 35.099483 36.24641 35.509697 36.331337 36.139027 C 36.432404 36.42099 36.373802 36.773449 36.390789 37.07325 C 36.390789 41.503193 36.388241 45.983246 36.39164 50.407249 C 36.3806 50.497272 36.395885 50.572861 36.439201 50.63316 C 37.807419 50.662888 39.426182 50.637409 40.827526 50.647602 C 41.007576 50.63316 41.210564 50.675625 41.382965 50.622971 L 41.413548 50.49218 C 41.408451 43.047226 41.416943 35.601418 41.4076 28.155613 C 41.389763 27.676605 41.62587 27.168732 42.030983 26.902901 C 42.470078 26.578465 43.019566 26.602245 43.545284 26.600548 Z"
  />
</svg>
