<?xml version="1.0" encoding="utf-8"?>
<svg x="0pt" y="0pt" width="1024pt" height="1024pt" viewBox="0 0 1024 1024" xmlns="http://www.w3.org/2000/svg" xmlns:xlink="http://www.w3.org/1999/xlink">
  <g id="1">
    <title>Layer 1</title>
    <clipPath id="3">
      <use xlink:href="#2"/>
      <path id="2" d="M0,0 C0,0,1024,0,1024,0 C1024,0,1024,1024,1024,1024 C1024,1024,0,1024,0,1024 C0,1024,0,0,0,0 z"/>
    </clipPath>
    <g id="4" style="clip-path:url(#3);">
      <title>Clipping Group</title>
      <defs>
        <title>Shape 4</title>
        <g id="5">
          <defs>
            <path id="6" d="M327.4,349.4 C295.7,359.7,287.4,368.1,277.1,399.8 C266.8,368.1,258.5,359.8,226.7,349.5 C258.4,339.2,266.8,330.9,277,299.2 C287.3,330.8,295.7,339.2,327.4,349.4 z"/>
          </defs>
          <use xlink:href="#6" style="fill:#ffffff;fill-opacity:1;fill-rule:evenodd;opacity:1;stroke:none;"/>
        </g>
      </defs>
      <use xlink:href="#5"/>
      <defs>
        <title>Shape 5</title>
        <g id="7">
          <defs>
            <path id="8" d="M263.2,466.2 C246,471.8,241.5,476.3,235.9,493.5 C230.3,476.3,225.8,471.8,208.6,466.2 C225.8,460.6,230.3,456.1,235.9,438.9 C241.5,456.2,246,460.7,263.2,466.2 z"/>
          </defs>
          <use xlink:href="#8" style="fill:#ffffff;fill-opacity:1;fill-rule:evenodd;opacity:1;stroke:none;"/>
        </g>
      </defs>
      <use xlink:href="#7"/>
      <defs>
        <title>Shape 6</title>
        <g id="9">
          <defs>
            <path id="10" d="M785.4,664.5 C768.2,670.1,763.7,674.6,758.1,691.8 C752.5,674.6,748,670.1,730.8,664.5 C748,658.9,752.5,654.4,758.1,637.2 C763.6,654.5,768.1,659,785.4,664.5 z"/>
          </defs>
          <use xlink:href="#10" style="fill:#ffffff;fill-opacity:1;fill-rule:evenodd;opacity:1;stroke:none;"/>
        </g>
      </defs>
      <use xlink:href="#9"/>
      <g id="11">
        <title>Group</title>
        <defs>
          <title>Shape 8</title>
          <g id="12">
            <defs>
              <path id="13" d="M424.1,310 C480.933,310,537.767,310,594.6,310 C613.8,263.933,633,217.867,652.2,171.8 C643.5,168.2,634.3,166,626.6,166 C626.6,166,396.2,166,396.2,166 C388.5,166,379.3,168.2,370.6,171.8 C370.6,171.8,424.1,310,424.1,310 z"/>
            </defs>
            <use xlink:href="#13" style="fill:#85bde2;fill-opacity:1;fill-rule:evenodd;opacity:1;stroke:none;"/>
          </g>
        </defs>
        <use xlink:href="#12"/>
        <defs>
          <title>Shape 9</title>
          <g id="14">
            <defs>
              <path id="15" d="M312.2,429 C350.867,389.9,389.533,350.8,428.2,311.7 C409.033,265.033,389.867,218.367,370.7,171.7 C362,175.3,353.9,180.2,348.5,185.7 C294.167,240,239.833,294.3,185.5,348.6 C180.1,354,175.1,362.1,171.5,370.8 C171.5,370.8,312.2,429,312.2,429 z"/>
            </defs>
            <use xlink:href="#15" style="fill:#658ce6;fill-opacity:1;fill-rule:evenodd;opacity:1;stroke:none;"/>
          </g>
        </defs>
        <use xlink:href="#14"/>
        <defs>
          <title>Shape 10</title>
          <g id="16">
            <defs>
              <path id="17" d="M171.5,652.4 C175.1,661,180,669.1,185.4,674.5 C239.733,728.833,294.067,783.167,348.4,837.5 C353.8,842.9,361.9,847.8,370.5,851.4 C389,806.7,407.5,762,426,717.3 C426,717.3,305.6,596.8,305.6,596.8 C305.6,596.8,171.5,652.4,171.5,652.4 z"/>
            </defs>
            <use xlink:href="#17" style="fill:#8d4ae6;fill-opacity:1;fill-rule:evenodd;opacity:1;stroke:none;"/>
          </g>
        </defs>
        <use xlink:href="#16"/>
        <defs>
          <title>Shape 11</title>
          <g id="18">
            <defs>
              <path id="19" d="M714.5,423.8 C714.067,482.833,713.633,541.867,713.2,600.9 C759.233,618.1,805.267,635.3,851.3,652.5 C854.9,643.9,857.1,634.6,857.1,626.9 C857.1,626.9,857.1,396.4,857.1,396.4 C857.1,388.7,854.9,379.5,851.3,370.8 C851.3,370.8,714.5,423.8,714.5,423.8 z"/>
            </defs>
            <use xlink:href="#19" style="fill:#8ab9ff;fill-opacity:1;fill-rule:evenodd;opacity:1;stroke:none;"/>
          </g>
        </defs>
        <use xlink:href="#18"/>
        <defs>
          <title>Shape 12</title>
          <g id="20">
            <defs>
              <path id="21" d="M594.6,305.9 C635.467,346.067,676.333,386.233,717.2,426.4 C761.9,407.9,806.6,389.4,851.3,370.9 C847.7,362.2,842.8,354.1,837.3,348.7 C837.3,348.7,674.4,185.7,674.4,185.7 C669,180.3,660.9,175.3,652.2,171.7 C652.2,171.7,594.6,305.9,594.6,305.9 z"/>
            </defs>
            <use xlink:href="#21" style="fill:#b5f4ff;fill-opacity:1;fill-rule:evenodd;opacity:1;stroke:none;"/>
          </g>
        </defs>
        <use xlink:href="#20"/>
        <defs>
          <title>Shape 13</title>
          <g id="22">
            <defs>
              <path id="23" d="M165.7,396.3 C165.7,473.167,165.7,550.033,165.7,626.9 C165.7,634.6,167.9,643.8,171.5,652.4 C216.2,633.9,260.9,615.4,305.6,596.9 C305.6,596.9,305.6,426.4,305.6,426.4 C260.9,407.867,216.2,389.333,171.5,370.8 C168,379.5,165.7,388.7,165.7,396.3 z"/>
            </defs>
            <use xlink:href="#23" style="fill:#a07df9;fill-opacity:1;fill-rule:evenodd;opacity:1;stroke:none;"/>
          </g>
        </defs>
        <use xlink:href="#22"/>
        <defs>
          <title>Shape 14</title>
          <g id="24">
            <defs>
              <path id="25" d="M396.1,857.3 C472.967,857.3,549.833,857.3,626.7,857.3 C634.4,857.3,643.6,855.1,652.2,851.5 C632.567,804.5,612.933,757.5,593.3,710.5 C593.3,710.5,429.5,710.5,429.5,710.5 C409.867,757.5,390.233,804.5,370.6,851.5 C379.2,855.1,388.4,857.3,396.1,857.3 z"/>
            </defs>
            <use xlink:href="#25" style="fill:#7c43bf;fill-opacity:1;fill-rule:evenodd;opacity:1;stroke:none;"/>
          </g>
        </defs>
        <use xlink:href="#24"/>
        <defs>
          <title>Shape 15</title>
          <g id="26">
            <defs>
              <path id="27" d="M713.1,595.2 C713.1,595.2,593.3,710.5,593.3,710.5 C612.933,757.5,632.567,804.5,652.2,851.5 C660.8,847.9,668.9,843,674.4,837.5 C728.7,783.2,783,728.9,837.3,674.6 C842.8,669.1,847.7,661.1,851.3,652.4 C851.3,652.4,713.1,595.2,713.1,595.2 z"/>
            </defs>
            <use xlink:href="#27" style="fill:#6a5fba;fill-opacity:1;fill-rule:evenodd;opacity:1;stroke:none;"/>
          </g>
        </defs>
        <use xlink:href="#26"/>
        <linearGradient x1="396.519" y1="630.198" x2="682.877" y2="334.635" gradientUnits="userSpaceOnUse" id="30">
          <stop offset="0.0139665" style="stop-color:#7148d5;stop-opacity:1;"/>
          <stop offset="0.9218" style="stop-color:#7adeff;stop-opacity:1;"/>
        </linearGradient>
        <defs>
          <title>Shape 16</title>
          <g id="28">
            <defs>
              <path id="29" d="M426.2,717.4 C426.2,717.4,305.6,596.9,305.6,596.9 C305.6,596.9,305.6,426.4,305.6,426.4 C305.6,426.4,426.2,305.9,426.2,305.9 C426.2,305.9,596.6,305.9,596.6,305.9 C596.6,305.9,717.2,426.4,717.2,426.4 C717.2,426.4,717.2,596.9,717.2,596.9 C717.2,596.9,596.6,717.4,596.6,717.4 z"/>
            </defs>
            <use xlink:href="#29" style="fill:url(#30);fill-opacity:1;fill-rule:evenodd;opacity:1;stroke:none;"/>
          </g>
        </defs>
        <use xlink:href="#28"/>
        <g id="31">
          <title>Group</title>
          <defs>
            <title>Shape 17</title>
            <g id="32">
              <defs>
                <path id="33" d="M392.3,683.6 C392.3,683.6,717.2,448.7,717.2,448.7 C717.2,448.7,717.2,426.4,717.2,426.4 C717.2,426.4,664.2,373.4,664.2,373.4 C664.2,373.4,326.4,617.6,326.4,617.6 z"/>
              </defs>
              <use xlink:href="#33" style="fill:#ffffff;fill-opacity:1;fill-rule:evenodd;opacity:1;stroke:none;"/>
            </g>
          </defs>
          <use xlink:href="#32"/>
          <defs>
            <title>Shape 18</title>
            <g id="34">
              <defs>
                <path id="35" d="M717.2,551.1 C717.2,551.1,717.2,507.4,717.2,507.4 C717.2,507.4,426.6,717.4,426.6,717.4 C426.6,717.4,487.1,717.4,487.1,717.4 z"/>
              </defs>
              <use xlink:href="#35" style="fill:#ffffff;fill-opacity:1;fill-rule:evenodd;opacity:1;stroke:none;"/>
            </g>
          </defs>
          <use xlink:href="#34"/>
        </g>
        <defs>
          <title>Shape 19</title>
          <g id="36">
            <defs>
              <path id="37" d="M327.2,349.4 C295.5,359.7,287.2,368.1,276.9,399.8 C266.6,368.1,258.3,359.8,226.5,349.5 C258.2,339.2,266.6,330.9,276.8,299.2 C287.1,330.8,295.4,339.1,327.2,349.4 z"/>
            </defs>
            <use xlink:href="#37" style="fill:#ffffff;fill-opacity:1;fill-rule:evenodd;opacity:1;stroke:none;"/>
          </g>
        </defs>
        <use xlink:href="#36"/>
        <defs>
          <title>Shape 20</title>
          <g id="38">
            <defs>
              <path id="39" d="M263,466.2 C245.8,471.8,241.3,476.3,235.7,493.5 C230.1,476.3,225.6,471.8,208.4,466.2 C225.6,460.6,230.1,456.1,235.7,438.9 C241.3,456.1,245.8,460.6,263,466.2 z"/>
            </defs>
            <use xlink:href="#39" style="fill:#ffffff;fill-opacity:1;fill-rule:evenodd;opacity:1;stroke:none;"/>
          </g>
        </defs>
        <use xlink:href="#38"/>
        <defs>
          <title>Shape 21</title>
          <g id="40">
            <defs>
              <path id="41" d="M785.1,664.5 C767.9,670.1,763.4,674.6,757.8,691.8 C752.2,674.6,747.7,670.1,730.5,664.5 C747.7,658.9,752.2,654.4,757.8,637.2 C763.4,654.4,767.9,658.9,785.1,664.5 z"/>
            </defs>
            <use xlink:href="#41" style="fill:#ffffff;fill-opacity:1;fill-rule:evenodd;opacity:1;stroke:none;"/>
          </g>
        </defs>
        <use xlink:href="#40"/>
      </g>
    </g>
    <clipPath id="43">
      <use xlink:href="#42"/>
      <path id="42" d="M0,0 C0,0,1024,0,1024,0 C1024,0,1024,1024,1024,1024 C1024,1024,0,1024,0,1024 C0,1024,0,0,0,0 z"/>
    </clipPath>
    <g id="44" style="clip-path:url(#43);"/>
  </g>
</svg>
