<svg xmlns="http://www.w3.org/2000/svg" xmlns:xlink="http://www.w3.org/1999/xlink" id="Calque_1" x="0" y="0" enable-background="new 0 0 1024 1024" version="1.1" viewBox="0 0 1024 1024" xml:space="preserve"><linearGradient id="SVGID_1_" x1="498.725" x2="846.872" y1="600.433" y2="600.433" gradientUnits="userSpaceOnUse"><stop offset="0" style="stop-color:#0034ff"/><stop offset=".106" style="stop-color:#003dfe"/><stop offset=".282" style="stop-color:#0057fb"/><stop offset=".507" style="stop-color:#0080f6"/><stop offset=".769" style="stop-color:#00b9ef"/><stop offset=".994" style="stop-color:#00f0e9"/></linearGradient><polyline fill="url(#SVGID_1_)" points="543.9 995 846.9 240.1 820 205.9 498.7 984"/><linearGradient id="SVGID_2_" x1="40.392" x2="896.712" y1="125.044" y2="125.044" gradientTransform="matrix(0.8355 -0.6218 0.5332 0.7165 -199.7628 629.296)" gradientUnits="userSpaceOnUse"><stop offset="0" style="stop-color:#0034ff"/><stop offset=".106" style="stop-color:#003dfe"/><stop offset=".282" style="stop-color:#0057fb"/><stop offset=".507" style="stop-color:#0080f6"/><stop offset=".769" style="stop-color:#00b9ef"/><stop offset=".994" style="stop-color:#00f0e9"/></linearGradient><polyline fill="url(#SVGID_2_)" points="522 34.9 57.1 833.7 0 827.3 412.7 56.4"/><g><path fill="#111B24" d="M691.7,749.5v-28.1c0,0-245.5-193,111.2-265.1v-33H347.3c0,0-14.7,12.2-22,13.4H83.4 c0,0,2.4,89.2,267.5,105.1c0,0,178.3,75.7-4.9,167.4v40.3H691.7z"/><polygon fill="#111B24" points="976.4 472.2 1024 418.4 758.9 204.6 817.6 138.7 782.1 106.9 696.6 150.9 684.4 144.8 651.4 182.7 662.4 193.7 616 245 675.9 301.1 723.5 246.2"/></g><linearGradient id="SVGID_3_" x1="537.399" x2="470.313" y1="955.632" y2="81.51" gradientUnits="userSpaceOnUse"><stop offset="0" style="stop-color:#0034ff"/><stop offset=".106" style="stop-color:#003dfe"/><stop offset=".282" style="stop-color:#0057fb"/><stop offset=".507" style="stop-color:#0080f6"/><stop offset=".769" style="stop-color:#00b9ef"/><stop offset=".994" style="stop-color:#00f0e9"/></linearGradient><polyline fill="url(#SVGID_3_)" points="413.2 56.8 498.7 984 543.9 995 521.9 34.8"/><linearGradient id="SVGID_4_" x1="863.753" x2="841.725" y1="627.524" y2="245.032" gradientUnits="userSpaceOnUse"><stop offset="0" style="stop-color:#0034ff"/><stop offset=".106" style="stop-color:#003dfe"/><stop offset=".282" style="stop-color:#0057fb"/><stop offset=".507" style="stop-color:#0080f6"/><stop offset=".769" style="stop-color:#00b9ef"/><stop offset=".994" style="stop-color:#00f0e9"/></linearGradient><polyline fill="url(#SVGID_4_)" points="820 205.9 826.1 650.5 903.1 633.4 846.9 240.1"/></svg>